P3
45 20
255
255 255 255 255 255 255 255 255 255 255 255 255 255 255 255 255 255 255 255 255 255 255 255 255 255 255 255 255 255 255 255 255 255 255 255 255 255 255 255 255 255 255 255 255 255 255 255 255 255 255 255 255 255 255 255 255 255 255 255 255 255 255 255 255 255 255 255 255 255 255 255 255 255 255 255 255 255 255 255 255 255 255 255 255 255 255 255 255 255 255 255 255 255 255 255 255 255 255 255 255 255 255 255 255 255 255 255 255 255 255 255 255 255 255 255 255 255 255 255 255 255 255 255 255 255 255 255 255 255 255 255 255 255 255 255 
255 255 255 255 252 255 255 253 255 253 254 254 255 255 255 255 255 255 254 255 253 254 254 255 255 252 255 254 251 255 255 255 255 255 255 255 255 255 255 255 255 255 255 255 255 210 191 200 190 139 150 255 255 255 193 150 159 201 153 160 179 121 132 183 123 137 178 122 137 175 127 139 211 186 193 205 187 193 205 187 194 205 188 195 196 168 174 186 120 132 197 162 171 140 9 16 162 111 115 219 206 212 255 255 255 253 255 255 255 255 255 248 255 255 255 255 255 255 255 255 255 255 255 255 255 255 255 255 255 255 255 255 255 255 255 
255 255 255 255 254 255 253 255 255 255 255 255 253 251 255 171 96 105 209 154 171 255 255 255 252 255 255 255 255 255 234 219 222 180 128 138 176 96 111 123 15 35 123 0 17 119 0 0 0 0 0 75 94 93 69 94 84 0 0 0 86 4 11 243 36 46 206 7 19 207 5 14 192 2 8 196 1 12 237 36 40 202 0 12 223 34 50 27 47 45 0 0 0 49 0 0 229 35 45 152 0 12 149 76 90 243 39 49 181 148 154 255 255 255 254 255 255 255 255 255 255 255 255 255 255 255 255 255 255 255 255 255 255 255 255 
255 255 255 253 253 254 249 255 255 255 255 255 142 42 62 152 6 26 234 38 44 187 49 55 194 142 153 124 12 33 117 0 0 159 0 14 170 4 15 255 31 35 60 0 5 61 71 73 255 255 255 255 255 255 255 255 255 255 255 255 35 59 54 82 5 8 255 25 41 241 27 37 244 26 37 250 36 38 2 0 0 89 103 102 255 255 255 255 255 255 255 255 255 98 113 115 6 0 0 244 33 52 237 30 24 244 29 42 179 6 19 135 48 65 242 238 244 255 255 255 255 255 255 255 255 255 255 255 255 255 255 255 255 255 255 
255 255 255 253 253 254 255 255 255 138 59 71 172 2 22 246 34 46 246 23 28 240 25 38 238 26 35 222 24 40 239 27 45 247 28 38 242 26 34 201 30 38 0 2 0 255 255 255 254 254 254 255 255 255 255 255 255 253 253 253 255 255 255 0 0 0 205 33 44 252 20 38 250 26 36 119 14 22 48 68 68 255 255 255 254 254 254 255 255 255 255 255 253 255 255 255 58 81 80 114 10 19 254 26 34 238 25 38 245 26 37 225 28 29 134 58 70 255 255 255 255 255 255 255 255 255 255 255 255 255 255 255 255 255 255 
255 255 255 255 255 255 238 237 236 134 0 10 234 35 43 240 32 34 248 27 33 239 32 31 241 30 38 244 28 38 247 24 36 241 27 36 252 27 32 113 8 17 102 114 114 255 255 255 255 255 255 99 99 99 172 172 172 255 255 255 255 255 255 87 103 100 115 10 12 255 22 46 255 28 37 23 0 0 208 215 211 255 255 255 253 253 253 127 127 127 224 225 220 255 255 255 226 223 228 0 0 0 251 33 43 246 22 35 237 26 36 243 25 34 183 19 40 201 171 174 146 81 95 168 106 121 195 150 160 255 255 255 255 255 255 
255 255 255 255 255 255 134 27 44 235 31 47 139 32 35 176 17 33 180 0 14 181 0 5 173 0 9 177 0 7 204 10 31 202 1 21 227 23 40 157 21 30 33 56 50 255 255 255 255 255 255 17 17 17 0 0 0 255 255 255 255 255 255 115 132 126 104 9 8 255 24 48 252 33 42 0 0 0 247 255 247 255 255 255 179 179 179 0 0 0 85 84 84 255 255 255 255 255 255 0 0 0 251 34 49 235 29 35 236 26 36 236 26 36 239 31 39 245 25 39 238 27 40 243 34 49 118 0 4 255 255 255 255 255 255 
255 255 255 255 255 255 149 45 57 255 255 201 255 255 207 104 0 11 217 182 154 226 223 175 229 214 176 236 216 180 196 166 131 196 159 127 168 105 88 134 13 25 180 32 45 208 213 215 255 255 255 255 255 255 210 210 209 255 255 255 255 255 255 23 39 38 155 22 27 255 20 41 255 27 44 0 0 0 216 221 222 255 255 255 255 255 255 233 234 233 255 255 255 255 255 255 225 234 233 0 0 0 251 32 43 243 23 37 240 28 37 243 28 36 244 28 37 244 28 34 234 28 31 253 24 34 146 0 11 255 255 255 255 255 255 
255 255 255 255 255 255 129 37 52 230 210 169 240 232 175 232 204 172 176 112 87 225 188 159 250 250 188 245 242 180 244 235 180 240 237 183 244 243 189 255 252 201 194 151 124 205 33 49 111 125 123 233 241 241 234 237 234 121 132 137 190 193 197 0 0 0 249 33 49 240 25 34 249 29 33 117 11 17 64 80 81 255 255 255 254 254 253 255 255 255 255 255 255 255 255 255 86 94 95 102 10 13 255 29 35 245 24 43 183 1 10 176 0 9 177 0 10 178 0 8 144 21 27 227 26 41 145 42 53 255 255 255 255 255 255 
255 255 255 255 255 255 149 53 62 250 248 193 239 227 173 250 242 191 160 64 73 143 50 75 148 48 38 159 68 61 211 167 141 211 202 155 222 190 156 234 215 174 248 251 193 244 246 183 174 93 82 238 39 46 0 0 0 56 2 2 229 27 52 187 37 40 183 9 23 166 0 10 245 28 36 245 30 47 0 0 0 113 129 127 255 255 255 255 255 255 255 255 255 145 157 163 170 92 92 155 54 57 158 43 40 148 34 31 220 193 162 233 209 174 227 215 168 231 207 178 240 222 183 248 253 194 157 68 87 255 255 255 255 255 255 
255 255 255 222 188 203 114 7 15 254 253 196 231 243 180 218 194 154 161 69 92 255 255 255 255 255 255 205 173 190 143 0 0 188 9 27 141 0 26 131 0 11 149 26 30 172 85 79 156 69 83 238 246 183 153 12 28 255 25 37 149 64 54 161 94 78 219 186 161 231 211 176 227 209 169 171 0 8 222 32 44 41 0 0 0 15 8 57 69 70 169 95 87 244 244 181 243 246 181 251 245 187 246 247 197 253 245 191 203 165 174 255 255 255 194 147 154 208 159 134 237 230 174 200 145 126 125 37 53 255 255 255 255 255 255 
255 255 255 233 212 221 156 23 37 222 191 164 206 163 137 174 98 91 170 104 113 255 255 255 234 230 232 169 116 130 237 15 31 228 35 62 113 11 17 230 43 58 217 42 36 151 5 23 253 255 255 198 166 176 214 7 26 141 15 23 241 237 244 175 98 116 247 242 186 242 240 181 162 64 66 138 9 21 228 209 170 136 33 45 218 20 38 164 79 76 248 249 194 253 250 199 255 249 202 246 222 181 182 144 154 237 231 238 252 255 255 223 203 211 151 9 21 118 36 37 217 171 162 138 24 30 166 113 123 244 252 250 253 254 255 
255 255 255 255 255 255 237 33 35 167 20 32 168 105 112 168 98 116 168 0 11 204 177 182 197 184 184 133 50 59 231 29 40 146 13 25 193 55 66 241 34 46 158 12 29 224 211 213 232 225 230 147 21 34 214 32 41 164 92 103 255 255 255 255 255 255 240 228 230 201 145 162 153 17 32 207 4 13 214 182 192 230 210 222 164 2 24 231 18 30 217 43 51 122 0 16 153 0 3 248 26 35 202 5 12 202 164 172 255 255 255 123 0 15 245 40 55 214 19 40 150 0 7 236 35 48 164 74 84 255 255 255 249 255 254 
255 255 255 255 255 255 140 44 53 232 18 26 193 160 161 207 183 186 155 90 102 159 5 25 151 79 89 255 255 255 158 9 23 134 0 8 169 129 132 141 11 14 193 148 164 255 255 255 107 0 21 214 44 57 160 0 0 246 249 255 255 253 255 253 254 255 255 255 255 255 255 255 156 67 82 232 28 46 140 57 65 255 255 255 186 164 163 176 22 34 251 23 37 242 21 37 128 14 29 235 44 61 131 19 36 238 228 234 242 237 241 164 0 4 240 30 44 238 24 41 154 0 10 246 24 38 143 24 38 254 247 255 253 255 255 
255 255 255 248 255 255 157 24 37 245 22 36 141 27 40 255 255 255 255 255 255 147 65 78 248 20 33 255 255 255 133 13 32 212 61 71 131 16 34 168 29 37 139 59 73 255 255 255 255 255 255 141 21 33 187 22 33 172 111 117 255 255 255 255 255 255 253 255 255 255 255 255 217 220 217 171 0 7 210 36 54 99 0 14 255 255 255 171 104 120 152 19 24 170 88 103 149 0 7 154 11 21 232 218 221 255 255 255 177 130 143 222 56 66 110 0 0 148 69 84 175 128 142 206 14 18 229 42 47 156 89 101 255 255 255 
255 255 255 255 255 255 148 65 80 232 41 54 216 31 50 174 124 133 255 255 255 151 85 93 241 227 239 250 238 248 200 161 172 155 0 0 204 17 39 137 18 37 244 41 54 120 5 27 255 255 255 216 204 203 178 2 23 169 7 28 221 202 207 255 255 255 249 255 254 255 255 255 208 168 179 182 11 24 141 18 29 242 229 228 255 255 255 158 107 116 178 21 37 131 33 48 186 44 50 130 17 38 255 255 255 255 255 255 222 12 29 211 27 36 206 175 184 238 232 232 231 224 219 212 4 27 185 35 48 214 199 201 255 255 255 
255 255 255 255 255 255 247 240 244 145 32 39 244 23 36 191 33 52 237 23 36 231 41 54 254 47 51 115 0 0 255 255 255 233 225 233 193 159 165 236 235 237 249 255 255 192 149 157 255 255 255 255 255 255 143 36 50 140 12 25 238 231 235 255 255 255 252 255 255 235 218 228 147 8 19 193 11 28 187 159 164 255 255 255 131 29 54 241 39 46 127 0 10 204 38 57 193 0 6 181 130 138 255 255 255 228 212 218 129 0 0 124 0 13 255 255 255 255 255 255 138 63 77 243 22 27 134 28 41 255 255 255 254 254 254 
255 255 255 255 255 251 255 255 255 188 143 153 175 6 15 163 0 4 165 0 5 165 0 5 174 0 3 109 0 0 255 255 255 255 255 255 255 255 255 255 255 255 255 255 255 255 255 255 255 255 255 251 255 255 217 179 193 163 113 118 255 255 255 255 255 255 251 255 255 222 203 208 164 20 35 147 14 36 255 255 255 255 255 255 162 91 106 211 200 210 230 200 205 162 89 99 192 155 165 240 238 241 255 255 255 131 24 39 227 46 54 172 0 1 220 176 180 207 185 193 172 0 10 222 23 40 154 85 94 255 255 255 254 254 254 
255 255 255 254 254 255 253 255 255 255 255 255 227 214 217 253 255 255 250 255 255 249 255 255 246 255 255 232 225 224 255 252 255 255 255 255 255 255 255 255 255 255 255 255 255 255 255 255 255 255 255 255 255 255 255 255 255 255 255 255 255 255 255 255 255 255 255 255 255 255 255 255 133 45 62 191 154 159 252 255 255 255 255 255 255 255 255 255 255 255 250 255 255 255 255 255 255 255 255 252 255 255 255 255 255 127 2 21 249 252 255 247 251 255 246 254 255 248 253 255 240 233 235 168 123 129 179 140 149 248 255 254 255 255 255 
255 255 255 255 255 255 255 255 255 255 255 255 255 255 255 255 255 255 255 255 255 255 255 255 255 255 255 255 255 255 255 255 255 255 255 255 255 255 255 255 255 255 255 255 255 255 255 255 255 255 255 255 255 255 255 255 255 255 255 255 255 255 255 255 255 255 255 255 255 255 255 255 255 255 255 255 255 255 255 255 255 255 255 255 255 255 255 255 255 255 255 255 255 255 255 255 255 255 255 255 255 255 255 255 255 255 255 255 255 255 255 255 255 255 255 255 255 255 255 255 255 255 255 255 255 255 255 255 255 255 255 255 255 255 255 
